<?xml version="1.0" encoding="utf-8"?>
<!-- Generator: Adobe Illustrator 16.0.4, SVG Export Plug-In . SVG Version: 6.00 Build 0)  -->
<!DOCTYPE svg PUBLIC "-//W3C//DTD SVG 1.1//EN" "http://www.w3.org/Graphics/SVG/1.1/DTD/svg11.dtd">
<svg version="1.1" id="Layer_1" xmlns="http://www.w3.org/2000/svg" xmlns:xlink="http://www.w3.org/1999/xlink" x="0px" y="0px"
	 width="82px" height="82px" viewBox="0 0 82 82" enable-background="new 0 0 82 82" xml:space="preserve">
<g>
	<defs>
		<rect id="SVGID_1_" width="82" height="82"/>
	</defs>
	<clipPath id="SVGID_2_">
		<use xlink:href="#SVGID_1_"  overflow="visible"/>
	</clipPath>
	
		<rect x="1" y="1" clip-path="url(#SVGID_2_)" fill="none" stroke="#000000" stroke-width="2" stroke-miterlimit="10" width="80" height="80"/>
	
		<circle clip-path="url(#SVGID_2_)" fill="none" stroke="#000000" stroke-width="2" stroke-miterlimit="10" cx="41" cy="41" r="40"/>
	<path clip-path="url(#SVGID_2_)" fill="#010202" d="M38.316,57.972h12.388c0.489,0,0.884-0.396,0.884-0.885
		c0-0.488-0.395-0.885-0.884-0.885H38.316c-0.489,0-0.885,0.396-0.885,0.885C37.431,57.576,37.827,57.972,38.316,57.972"/>
	<path clip-path="url(#SVGID_2_)" fill="#010202" d="M33.007,23.463c0,0.488,0.395,0.885,0.885,0.885h30.969
		c1.463,0,2.653,1.191,2.653,2.654v21.236c0,0.489,0.396,0.885,0.886,0.885s0.885-0.396,0.885-0.885V27.002
		c0-2.439-1.985-4.424-4.424-4.424H33.892C33.403,22.579,33.007,22.976,33.007,23.463"/>
	<path clip-path="url(#SVGID_2_)" fill="#010202" d="M38.316,52.663h8.848c0.49,0,0.885-0.396,0.885-0.885s-0.395-0.886-0.885-0.886
		h-8.848c-0.489,0-0.885,0.397-0.885,0.886S37.827,52.663,38.316,52.663"/>
	<path clip-path="url(#SVGID_2_)" fill="#010202" d="M47.164,66.82H32.123V27.003c0-2.44-1.985-4.425-4.424-4.425
		c-2.44,0-4.425,1.985-4.425,4.425v30.083c0,1.463-1.191,2.654-2.654,2.654c-1.464,0-2.655-1.191-2.655-2.654V17.269h35.394v2.655
		c0,0.488,0.395,0.885,0.885,0.885c0.489,0,0.884-0.397,0.884-0.885v-3.539c0-0.489-0.395-0.885-0.884-0.885H17.081
		c-0.49,0-0.885,0.396-0.885,0.885v40.702c0,2.439,1.985,4.424,4.424,4.424c2.44,0,4.424-1.984,4.424-4.424V27.003
		c0-1.464,1.191-2.655,2.655-2.655c1.463,0,2.654,1.191,2.654,2.655v32.738h-4.424c-0.489,0-0.885,0.397-0.885,0.885
		c0,0.488,0.396,0.885,0.885,0.885h4.424v6.194c0,0.488,0.396,0.884,0.885,0.884h15.927c0.489,0,0.886-0.396,0.886-0.884
		C48.05,67.216,47.653,66.82,47.164,66.82"/>
	<path clip-path="url(#SVGID_2_)" fill="#010202" d="M56.897,51.778c0-0.488-0.395-0.885-0.885-0.885h-5.31
		c-0.488,0-0.885,0.396-0.885,0.885c0,0.487,0.396,0.885,0.885,0.885h5.31C56.503,52.663,56.897,52.266,56.897,51.778"/>
	<path clip-path="url(#SVGID_2_)" fill="#010202" d="M68.231,51.947l-1.771-1.77c-1.359-1.36-3.431-1.357-4.79,0L50.078,61.771
		c-0.166,0.166-0.259,0.391-0.259,0.626v5.309c0,0.488,0.395,0.885,0.884,0.885h5.309c0.236,0,0.462-0.093,0.627-0.26l11.593-11.593
		C69.642,55.328,69.642,53.357,68.231,51.947 M60.527,53.824l1.402,1.403l-7.687,7.687l-1.404-1.402L60.527,53.824z M51.588,66.82
		v-4.058l4.059,4.058H51.588z M56.897,65.569l-1.403-1.404l7.688-7.686l1.403,1.402L56.897,65.569z M66.98,55.486l-1.145,1.145
		l-4.058-4.059l1.144-1.144c0.701-0.7,1.586-0.702,2.288,0l1.771,1.77C67.696,53.915,67.696,54.771,66.98,55.486"/>
	<path clip-path="url(#SVGID_2_)" fill="#010202" d="M58.668,46.469v-7.597l0.259,0.259c0.172,0.173,0.398,0.259,0.625,0.259
		s0.454-0.086,0.626-0.259c0.346-0.346,0.346-0.905,0-1.251l-1.77-1.769l-0.001-0.002l-7.963-7.962
		c-0.346-0.346-0.905-0.346-1.251,0l-7.963,7.962l-0.001,0.002L39.46,37.88c-0.346,0.346-0.346,0.905,0,1.251
		c0.346,0.346,0.905,0.346,1.251,0l0.259-0.259v7.597c0,0.488,0.396,0.886,0.885,0.886h6.194c0.488,0,0.885-0.397,0.885-0.886
		v-4.424h1.769v4.424c0,0.488,0.396,0.886,0.886,0.886h6.193C58.271,47.354,58.668,46.957,58.668,46.469 M56.897,45.584h-4.424
		V41.16c0-0.489-0.396-0.885-0.885-0.885H48.05c-0.49,0-0.886,0.396-0.886,0.885v4.424H42.74v-8.482l7.078-7.079l7.079,7.079V45.584
		z"/>
</g>
</svg>
