<?xml version="1.0" encoding="utf-8"?>
<!-- Generator: Adobe Illustrator 16.0.4, SVG Export Plug-In . SVG Version: 6.00 Build 0)  -->
<!DOCTYPE svg PUBLIC "-//W3C//DTD SVG 1.1//EN" "http://www.w3.org/Graphics/SVG/1.1/DTD/svg11.dtd">
<svg version="1.1" id="Layer_1" xmlns="http://www.w3.org/2000/svg" xmlns:xlink="http://www.w3.org/1999/xlink" x="0px" y="0px"
	 width="82px" height="82px" viewBox="0 0 82 82" enable-background="new 0 0 82 82" xml:space="preserve">
<g>
	<defs>
		<rect id="SVGID_1_" width="82" height="82"/>
	</defs>
	<clipPath id="SVGID_2_">
		<use xlink:href="#SVGID_1_"  overflow="visible"/>
	</clipPath>
	
		<rect x="1" y="1" clip-path="url(#SVGID_2_)" fill="none" stroke="#000000" stroke-width="2" stroke-miterlimit="10" width="80" height="80"/>
	
		<circle clip-path="url(#SVGID_2_)" fill="none" stroke="#000000" stroke-width="2" stroke-miterlimit="10" cx="41" cy="41" r="40"/>
	<path clip-path="url(#SVGID_2_)" fill="none" stroke="#000000" stroke-width="2" stroke-miterlimit="10" d="M63.261,57.845"/>
	<path clip-path="url(#SVGID_2_)" fill="#010202" d="M52.898,25.333v-0.084c-0.084-0.083-0.084-0.167-0.167-0.251l-8.385-8.383
		c-0.084-0.084-0.167-0.084-0.251-0.168h-0.084c-0.084,0-0.168-0.084-0.252-0.084H16.934c-0.503,0-0.839,0.335-0.839,0.838v48.624
		c0,0.503,0.336,0.838,0.839,0.838h35.209c0.504,0,0.839-0.335,0.839-0.838v-40.24C52.982,25.501,52.982,25.417,52.898,25.333
		 M50.132,24.746h-5.533v-5.533L50.132,24.746z M35.377,64.987v-3.354h1.677c0.503,0,0.838-0.335,0.838-0.838v-3.353h0.838
		c0.503,0,0.839-0.336,0.839-0.84V50.4c4.108-1.93,6.707-6.037,6.707-10.563c0-6.456-5.281-11.737-11.736-11.737
		s-11.737,5.281-11.737,11.737c0,4.527,2.599,8.634,6.707,10.563v6.202c0,0.504,0.335,0.84,0.838,0.84h0.838v3.353
		c0,0.503,0.336,0.838,0.839,0.838H33.7v3.354H17.772V18.04h25.15v7.545c0,0.503,0.335,0.838,0.838,0.838h7.545v38.564H35.377z
		 M31.185,52.412v-2.515c0-0.337-0.167-0.588-0.503-0.756c-3.772-1.593-6.203-5.28-6.203-9.305c0-5.534,4.527-10.061,10.06-10.061
		c5.533,0,10.06,4.527,10.06,10.061c0,4.024-2.431,7.712-6.204,9.305c-0.335,0.084-0.503,0.419-0.503,0.756v5.867h-0.838h-5.03
		h-0.839v-1.677h4.192v-1.676H31.185z M32.862,57.442h3.353v2.515h-3.353V57.442z"/>
	<polygon clip-path="url(#SVGID_2_)" fill="#010202" points="35.377,38.495 37.641,36.231 36.467,35.058 34.539,36.986 
		32.61,35.058 31.437,36.231 33.7,38.495 33.7,47.381 35.377,47.381 	"/>
	<path clip-path="url(#SVGID_2_)" fill="#010202" d="M65.557,16.363h-5.029c-0.503,0-0.838,0.335-0.838,0.838v3.354h-2.516
		c-0.503,0-0.839,0.335-0.839,0.838v25.15h1.677V22.231h1.678v4.192V58.28c0,0.167,0.083,0.419,0.167,0.503l2.431,7.293
		c0.084,0.336,0.42,0.587,0.755,0.587s0.671-0.251,0.755-0.587l2.432-7.293c0.084-0.168,0.167-0.336,0.167-0.503V26.423v-9.222
		C66.396,16.698,66.061,16.363,65.557,16.363 M61.365,27.261h3.353v30.18h-3.353V27.261z M61.365,18.04h3.353v7.545h-3.353V18.04z
		 M63.042,63.143l-1.341-4.024h2.682L63.042,63.143z"/>
	<rect x="21.125" y="20.555" clip-path="url(#SVGID_2_)" fill="#010202" width="4.192" height="1.677"/>
	<rect x="21.125" y="23.908" clip-path="url(#SVGID_2_)" fill="#010202" width="10.898" height="1.677"/>
</g>
</svg>
