<?xml version="1.0" encoding="utf-8"?>
<!-- Generator: Adobe Illustrator 16.0.4, SVG Export Plug-In . SVG Version: 6.00 Build 0)  -->
<!DOCTYPE svg PUBLIC "-//W3C//DTD SVG 1.1//EN" "http://www.w3.org/Graphics/SVG/1.1/DTD/svg11.dtd">
<svg version="1.1" id="Layer_1" xmlns="http://www.w3.org/2000/svg" xmlns:xlink="http://www.w3.org/1999/xlink" x="0px" y="0px"
	 width="82px" height="82px" viewBox="0 0 82 82" enable-background="new 0 0 82 82" xml:space="preserve">
<g>
	<defs>
		<rect id="SVGID_1_" width="82" height="82"/>
	</defs>
	<clipPath id="SVGID_2_">
		<use xlink:href="#SVGID_1_"  overflow="visible"/>
	</clipPath>
	
		<rect x="1" y="1" clip-path="url(#SVGID_2_)" fill="none" stroke="#000000" stroke-width="2" stroke-miterlimit="10" width="80" height="80"/>
	
		<circle clip-path="url(#SVGID_2_)" fill="none" stroke="#000000" stroke-width="2" stroke-miterlimit="10" cx="41" cy="41" r="40"/>
	<path clip-path="url(#SVGID_2_)" fill="none" stroke="#000000" stroke-width="2" stroke-miterlimit="10" d="M65.184,52.597
		c-0.558,2.131-2.992,3.132-5.387,2.505L47.3,51.825l-4.444,2.089l0.8-3.045l-4.089-1.071c-2.394-0.628-4.101-2.714-3.544-4.844
		l5.205-19.858c0.56-2.13,3.11-3.264,5.504-2.637l20.232,5.302c2.394,0.628,3.984,2.848,3.425,4.978L65.184,52.597z"/>
	<path clip-path="url(#SVGID_2_)" fill="none" stroke="#000000" stroke-width="2" stroke-miterlimit="10" d="M14.9,46.854
		c-0.295-1.211,0.626-2.454,1.988-2.786l11.511-2.809c1.362-0.333,2.797,0.334,3.093,1.546l2.757,11.298
		c0.296,1.212-0.692,2.378-2.054,2.71l-2.326,0.568l0.423,1.731l-2.497-1.226l-7.111,1.734c-1.361,0.333-2.731-0.258-3.027-1.469
		L14.9,46.854z"/>
</g>
</svg>
