<?xml version="1.0" encoding="utf-8"?>
<!-- Generator: Adobe Illustrator 16.0.4, SVG Export Plug-In . SVG Version: 6.00 Build 0)  -->
<!DOCTYPE svg PUBLIC "-//W3C//DTD SVG 1.1//EN" "http://www.w3.org/Graphics/SVG/1.1/DTD/svg11.dtd">
<svg version="1.1" id="Layer_1" xmlns="http://www.w3.org/2000/svg" xmlns:xlink="http://www.w3.org/1999/xlink" x="0px" y="0px"
	 width="82px" height="82px" viewBox="0 0 82 82" enable-background="new 0 0 82 82" xml:space="preserve">
<g>
	<defs>
		<rect id="SVGID_1_" width="82" height="82"/>
	</defs>
	<clipPath id="SVGID_2_">
		<use xlink:href="#SVGID_1_"  overflow="visible"/>
	</clipPath>
	
		<rect x="1" y="1" clip-path="url(#SVGID_2_)" fill="none" stroke="#000000" stroke-width="2" stroke-miterlimit="10" width="80" height="80"/>
	
		<circle clip-path="url(#SVGID_2_)" fill="none" stroke="#000000" stroke-width="2" stroke-miterlimit="10" cx="41" cy="41" r="40"/>
	<path clip-path="url(#SVGID_2_)" fill="none" stroke="#000000" stroke-width="2" stroke-miterlimit="10" d="M48.015,40.695
		L41.3,47.404l-2.053,2.059L21.709,67.001L15,60.286l6.667-6.668l3.862,3.865c0.568,0.568,1.485,0.568,2.053,0
		c0.568-0.567,0.568-1.489,0-2.058l-3.861-3.862l5.263-5.261l3.865,3.86c0.569,0.568,1.486,0.568,2.054,0
		c0.568-0.568,0.568-1.485,0-2.054l-3.861-3.866l5.162-5.163l3.862,3.866c0.568,0.568,1.485,0.568,2.053,0
		c0.568-0.567,0.568-1.49,0-2.058l-3.86-3.862l5.698-5.697l3.859,3.862c0.569,0.567,1.492,0.567,2.061,0
		c0.566-0.564,0.566-1.487,0-2.055l-3.862-3.861l5.063-5.063l4.06,4.06c0.568,0.568,1.491,0.568,2.059,0
		c0.567-0.568,0.567-1.486,0-2.054l-4.064-4.065L60.285,15L67,21.709L50.069,38.636L48.015,40.695z M15.69,21.795l6.715-6.71
		l5.697,5.697l-6.715,6.71L15.69,21.795z M23.446,29.546l6.71-6.711l9.091,9.091l-6.71,6.71L23.446,29.546z M63.995,62.713
		l-7.723-2.03l5.187-5.187L63.995,62.713z M60.082,52.762l-6.71,6.715L43.359,49.463l6.71-6.715L60.082,52.762z"/>
</g>
</svg>
