<?xml version="1.0" encoding="utf-8"?>
<!-- Generator: Adobe Illustrator 16.0.4, SVG Export Plug-In . SVG Version: 6.00 Build 0)  -->
<!DOCTYPE svg PUBLIC "-//W3C//DTD SVG 1.1//EN" "http://www.w3.org/Graphics/SVG/1.1/DTD/svg11.dtd">
<svg version="1.1" id="Layer_1" xmlns="http://www.w3.org/2000/svg" xmlns:xlink="http://www.w3.org/1999/xlink" x="0px" y="0px"
	 width="82px" height="82px" viewBox="0 0 82 82" enable-background="new 0 0 82 82" xml:space="preserve">
<g>
	<defs>
		<rect id="SVGID_1_" width="82" height="82"/>
	</defs>
	<clipPath id="SVGID_2_">
		<use xlink:href="#SVGID_1_"  overflow="visible"/>
	</clipPath>
	
		<rect x="1" y="1" clip-path="url(#SVGID_2_)" fill="none" stroke="#000000" stroke-width="2" stroke-miterlimit="10" width="80" height="80"/>
	
		<circle clip-path="url(#SVGID_2_)" fill="none" stroke="#000000" stroke-width="2" stroke-miterlimit="10" cx="41" cy="41" r="40"/>
	
		<line clip-path="url(#SVGID_2_)" fill="none" stroke="#000000" stroke-width="2" stroke-miterlimit="10" x1="13.125" y1="38.493" x2="14.125" y2="38.493"/>
	
		<line clip-path="url(#SVGID_2_)" fill="none" stroke="#000000" stroke-width="2" stroke-miterlimit="10" stroke-dasharray="1.969,1.969" x1="16.094" y1="38.493" x2="34.795" y2="38.493"/>
	<polyline clip-path="url(#SVGID_2_)" fill="none" stroke="#000000" stroke-width="2" stroke-miterlimit="10" points="35.78,38.493 
		36.78,38.493 36.78,37.493 	"/>
	
		<line clip-path="url(#SVGID_2_)" fill="none" stroke="#000000" stroke-width="2" stroke-miterlimit="10" stroke-dasharray="1.966,1.966" x1="36.78" y1="35.527" x2="36.78" y2="24.714"/>
	
		<line clip-path="url(#SVGID_2_)" fill="none" stroke="#000000" stroke-width="2" stroke-miterlimit="10" x1="36.78" y1="23.73" x2="36.78" y2="22.73"/>
	<path clip-path="url(#SVGID_2_)" fill="none" stroke="#010202" stroke-width="2" stroke-miterlimit="10" d="M56.806,43.231
		c0,6.671,5.398,12.068,12.069,12.068"/>
	
		<rect x="28.946" y="48.887" clip-path="url(#SVGID_2_)" fill="none" stroke="#000000" stroke-width="2" stroke-miterlimit="10" width="26.216" height="10.382"/>
	<polygon clip-path="url(#SVGID_2_)" fill="none" stroke="#000000" stroke-width="2" stroke-miterlimit="10" points="68.875,33.268 
		68.875,42.107 55.162,42.107 55.162,35.779 55.162,47.687 13.125,47.687 13.125,39.7 13.125,37.286 13.125,22.73 35.574,22.73 
		37.986,22.73 42.383,22.73 46.928,22.73 61.218,22.73 68.875,22.73 	"/>
	
		<line clip-path="url(#SVGID_2_)" fill="none" stroke="#000000" stroke-width="2" stroke-miterlimit="10" x1="68.875" y1="42.107" x2="68.875" y2="56.424"/>
</g>
</svg>
